<?xml version="1.0" standalone="no"?>
<!DOCTYPE svg PUBLIC "-//W3C//DTD SVG 20010904//EN"
 "http://www.w3.org/TR/2001/REC-SVG-20010904/DTD/svg10.dtd">
<svg version="1.0" xmlns="http://www.w3.org/2000/svg"
 width="512.000000pt" height="512.000000pt" viewBox="0 0 512.000000 512.000000"
 preserveAspectRatio="xMidYMid meet">

<g transform="translate(0.000000,512.000000) scale(0.100000,-0.100000)"
fill="#000000" stroke="none">
<path d="M4722 5027 c-43 -13 -116 -78 -132 -117 l-12 -30 -187 0 -186 0 -186
-186 -187 -187 -113 66 c-325 186 -645 282 -1036 310 l-43 3 0 -323 0 -323 39
0 c78 0 289 -43 411 -83 509 -168 899 -559 1069 -1072 39 -117 81 -329 81
-406 l0 -39 323 0 323 0 -8 98 c-22 283 -98 568 -221 824 -136 280 -359 571
-584 758 -48 41 -92 78 -98 82 -5 5 54 71 145 163 l155 155 151 0 152 0 12
-30 c17 -42 90 -104 138 -118 91 -28 167 -8 237 63 98 97 101 222 8 325 -64
72 -159 97 -251 67z m133 -172 c16 -15 25 -36 25 -55 0 -19 -9 -40 -25 -55
-15 -16 -36 -25 -55 -25 -19 0 -40 9 -55 25 -16 15 -25 36 -25 55 0 19 9 40
25 55 15 16 36 25 55 25 19 0 40 -9 55 -25z m-1850 -177 c151 -30 355 -101
501 -173 447 -221 809 -591 1021 -1043 80 -171 155 -426 179 -609 l7 -53 -162
0 c-88 0 -161 3 -161 6 0 3 -9 52 -20 107 -72 355 -230 659 -475 915 -295 308
-621 480 -1057 556 l-38 7 0 161 0 161 53 -7 c28 -4 97 -16 152 -28z"/>
<path d="M2440 4884 c-298 -28 -490 -69 -696 -148 -420 -161 -772 -426 -1043
-786 -278 -369 -429 -781 -464 -1267 l-3 -43 323 0 323 0 0 39 c0 77 42 289
81 406 199 600 698 1029 1318 1134 68 12 141 21 162 21 l39 0 0 325 c0 179 -1
324 -2 323 -2 0 -19 -3 -38 -4z m-120 -334 c0 -88 -2 -160 -4 -160 -2 0 -39
-7 -82 -15 -43 -8 -78 -14 -79 -12 -2 2 -57 284 -59 302 -1 9 145 42 197 44
l27 1 0 -160z m-380 77 c0 -2 14 -71 30 -152 17 -82 28 -151 25 -153 -11 -12
-145 -59 -149 -53 -18 31 -117 283 -113 288 4 3 46 20 94 39 81 31 113 39 113
31z m-296 -290 c32 -77 55 -141 53 -143 -11 -11 -120 -74 -128 -74 -9 0 -167
230 -171 250 -3 14 174 121 183 111 3 -3 32 -68 63 -144z m-299 -182 c48 -69
85 -130 83 -134 -2 -5 -28 -29 -59 -54 l-56 -46 -111 112 -112 112 78 67 c42
37 80 68 84 68 4 0 46 -56 93 -125z m-192 -404 c-25 -31 -48 -57 -52 -59 -7
-2 -223 139 -250 164 -12 11 -3 25 54 94 l69 81 112 -112 113 -112 -46 -56z
m-270 -113 c64 -43 117 -82 117 -87 0 -4 -16 -36 -37 -70 -26 -44 -41 -60 -52
-56 -67 22 -276 116 -274 124 2 5 25 48 53 96 33 56 55 83 63 78 7 -3 65 -42
130 -85z m-214 -287 c53 -22 117 -49 143 -60 l46 -20 -27 -70 c-15 -39 -30
-73 -32 -75 -2 -3 -69 8 -149 25 -79 16 -148 29 -153 29 -5 0 -6 12 -2 27 11
45 66 183 73 183 3 0 49 -18 101 -39z m88 -386 c2 -1 -4 -36 -12 -79 -8 -43
-15 -80 -15 -82 0 -2 -72 -4 -160 -4 -150 0 -160 1 -160 19 0 19 28 177 35
197 2 8 51 2 157 -19 84 -17 154 -31 155 -32z"/>
<path d="M2665 3874 c-55 -75 -104 -138 -109 -141 -4 -3 -54 40 -110 95 l-101
101 -222 -56 c-123 -30 -223 -59 -223 -64 0 -5 54 -153 120 -329 66 -176 120
-326 119 -333 0 -6 -50 -55 -111 -107 -252 -217 -312 -283 -391 -438 -206
-400 -133 -867 182 -1183 214 -213 479 -311 801 -296 152 7 262 33 386 92 122
57 204 114 295 204 315 316 388 783 182 1183 -79 154 -141 224 -400 448 l-109
95 123 370 c68 203 123 373 123 376 0 5 -440 120 -452 119 -2 -1 -48 -62 -103
-136z m268 -69 c42 -10 77 -24 77 -29 0 -6 -42 -137 -93 -291 l-94 -280 -264
-3 -264 -2 -94 250 c-51 138 -92 252 -90 254 2 2 44 13 93 25 l90 22 137 -137
137 -137 133 177 c72 97 137 175 143 173 6 -2 46 -12 89 -22z m75 -903 c245
-216 316 -304 376 -463 186 -496 -122 -1045 -643 -1143 -164 -31 -370 -15
-511 41 -391 156 -615 564 -531 969 48 234 124 341 436 618 l130 115 293 0
293 1 157 -138z"/>
<path d="M2480 2640 c0 -67 -3 -80 -16 -80 -77 0 -189 -88 -212 -166 -28 -94
-8 -169 63 -239 63 -64 100 -75 244 -75 105 0 113 -1 136 -25 16 -15 25 -36
25 -55 0 -19 -9 -40 -25 -55 -23 -24 -29 -25 -160 -25 l-135 0 0 40 0 40 -80
0 -80 0 0 -120 0 -120 120 0 120 0 0 -80 0 -80 80 0 80 0 0 80 c0 67 3 80 16
80 77 0 189 88 212 166 28 94 8 169 -63 239 -63 64 -100 75 -244 75 -105 0
-113 1 -136 25 -33 32 -33 78 0 110 23 24 29 25 160 25 l135 0 0 -40 0 -40 80
0 80 0 0 120 0 120 -120 0 -120 0 0 80 0 80 -80 0 -80 0 0 -80z"/>
<path d="M242 2383 c49 -640 378 -1257 878 -1645 l35 -28 -155 -155 -155 -155
-151 0 -152 0 -12 30 c-28 68 -129 130 -210 130 -124 0 -240 -116 -240 -240 0
-124 116 -240 240 -240 81 0 182 62 210 130 l12 30 187 0 186 0 185 185 c102
102 187 185 191 185 3 0 44 -23 90 -51 292 -176 649 -290 997 -317 l102 -8 0
322 0 321 -76 6 c-572 49 -1098 410 -1353 931 -90 182 -171 481 -171 627 l0
39 -323 0 -323 0 8 -97z m488 -69 c0 -23 45 -224 66 -293 133 -441 443 -828
849 -1062 106 -61 263 -129 376 -163 69 -21 270 -66 293 -66 3 0 6 -73 6 -161
l0 -162 -52 7 c-204 27 -456 104 -651 200 -450 222 -812 590 -1024 1044 -80
171 -155 426 -179 610 l-7 52 162 0 c88 0 161 -3 161 -6z m-355 -1939 c50 -49
15 -135 -55 -135 -41 0 -80 39 -80 80 0 41 39 80 80 80 19 0 40 -9 55 -25z"/>
<path d="M4240 2441 c0 -21 -9 -94 -21 -162 -120 -708 -670 -1258 -1378 -1378
-68 -12 -141 -21 -162 -21 l-39 0 0 -323 0 -323 43 3 c485 35 891 184 1265
463 536 400 878 1018 930 1678 l8 102 -323 0 -323 0 0 -39z m465 -173 c-78
-606 -434 -1166 -965 -1519 -252 -168 -592 -296 -887 -335 l-53 -7 0 161 0
161 38 7 c178 31 300 66 449 130 240 103 418 227 608 426 245 256 403 560 475
915 11 55 20 104 20 107 0 3 72 6 161 6 l161 0 -7 -52z"/>
</g>
</svg>
