<svg id="Layer_1" data-name="Layer 1" xmlns="http://www.w3.org/2000/svg" viewBox="0 0 42.17 31.62"><title>mail</title><path d="M24.09,40.65H10a6.73,6.73,0,0,1-5.7-2.78A6.17,6.17,0,0,1,3,34.22C3,31.48,3,28.75,3,26c0-3.39,0-6.77,0-10.16a6.76,6.76,0,0,1,5.2-6.63A8.32,8.32,0,0,1,10.08,9h28a6.77,6.77,0,0,1,7,5.87,7.12,7.12,0,0,1,.06,1q0,8.91,0,17.81a6.74,6.74,0,0,1-5.25,6.72,8.19,8.19,0,0,1-1.91.18Zm0-2H38.12a4.79,4.79,0,0,0,5.09-5.07V16.08A4.79,4.79,0,0,0,38.12,11h-28a7.23,7.23,0,0,0-.93,0A4.79,4.79,0,0,0,5,16c0,5.93,0,11.85,0,17.77a5.24,5.24,0,0,0,0,.79,4.79,4.79,0,0,0,4.88,4.16Z" transform="translate(-3.01 -9.03)" style="fill:#fff"/><path d="M39.25,35.9a1.31,1.31,0,0,1-1-.48l-5.89-5.59c-1-1-2-1.92-3.05-2.91-.26-.25-.41-.26-.68,0-1.19,1.19-2.41,2.37-3.61,3.54-.73.71-1.19.71-1.92,0C22,29.3,20.77,28.17,19.61,27c-.28-.29-.44-.31-.75,0q-4.21,4-8.45,8c-.21.2-.4.4-.62.58a1,1,0,0,1-1.51-.08,1,1,0,0,1,.15-1.42q2.45-2.32,4.9-4.64c1.37-1.3,2.74-2.61,4.13-3.89.27-.26.26-.4,0-.66-3-2.88-5.93-5.78-8.89-8.67a4.47,4.47,0,0,1-.43-.44.9.9,0,0,1,0-1.23.94.94,0,0,1,1.33-.2,3.57,3.57,0,0,1,.46.4q6.87,6.69,13.73,13.38c.33.33.5.34.85,0q6.84-6.72,13.72-13.39c.1-.1.2-.2.31-.29a1,1,0,0,1,1.45,0,.91.91,0,0,1-.08,1.4c-.65.66-1.31,1.3-2,1.94-2.37,2.32-4.73,4.64-7.12,6.93-.34.33-.3.49,0,.8,3,2.79,5.93,5.6,8.89,8.4.74.69.61,1.55-.26,1.84A1.64,1.64,0,0,1,39.25,35.9Z" transform="translate(-3.01 -9.03)" style="fill:#fff"/></svg>